<?xml version="1.0" encoding="UTF-8" standalone="no"?>
<!-- Created with Inkscape (http://www.inkscape.org/) -->

<svg
   xmlns:dc="http://purl.org/dc/elements/1.1/"
   xmlns:cc="http://creativecommons.org/ns#"
   xmlns:rdf="http://www.w3.org/1999/02/22-rdf-syntax-ns#"
   xmlns:svg="http://www.w3.org/2000/svg"
   xmlns="http://www.w3.org/2000/svg"
   xmlns:sodipodi="http://sodipodi.sourceforge.net/DTD/sodipodi-0.dtd"
   xmlns:inkscape="http://www.inkscape.org/namespaces/inkscape"
   width="536.77942"
   height="319.88132"
   id="svg3886"
   version="1.1"
   inkscape:version="0.48.3.1 r9886"
   sodipodi:docname="submersible.svg">
  <defs
     id="defs3888" />
  <sodipodi:namedview
     id="base"
     pagecolor="#ffffff"
     bordercolor="#666666"
     borderopacity="1.0"
     inkscape:pageopacity="0.0"
     inkscape:pageshadow="2"
     inkscape:zoom="1.006501"
     inkscape:cx="178.84821"
     inkscape:cy="165.01766"
     inkscape:document-units="px"
     inkscape:current-layer="layer2"
     showgrid="false"
     fit-margin-top="0"
     fit-margin-left="0"
     fit-margin-right="0"
     fit-margin-bottom="0"
     inkscape:window-width="1389"
     inkscape:window-height="911"
     inkscape:window-x="142"
     inkscape:window-y="384"
     inkscape:window-maximized="0" />
  <metadata
     id="metadata3891">
    <rdf:RDF>
      <cc:Work
         rdf:about="">
        <dc:format>image/svg+xml</dc:format>
        <dc:type
           rdf:resource="http://purl.org/dc/dcmitype/StillImage" />
        <dc:title></dc:title>
      </cc:Work>
    </rdf:RDF>
  </metadata>
  <g
     inkscape:groupmode="layer"
     id="layer2"
     inkscape:label="Layer"
     style="display:inline"
     transform="translate(-50.167635,-255.75998)">
    <rect
       style="color:#000000;fill:#000000;fill-opacity:1;fill-rule:nonzero;stroke:#000000;stroke-width:1;stroke-linecap:round;stroke-linejoin:round;stroke-miterlimit:4;stroke-opacity:1;stroke-dasharray:none;stroke-dashoffset:0;marker:none;visibility:visible;display:inline;overflow:visible;enable-background:accumulate"
       id="rect4402-0"
       width="337.52509"
       height="107.30243"
       x="225.31595"
       y="395.13477"
       ry="14.148231" />
    <rect
       style="color:#000000;fill:#000000;fill-opacity:1;fill-rule:nonzero;stroke:#000000;stroke-width:1;stroke-linecap:round;stroke-linejoin:round;stroke-miterlimit:4;stroke-opacity:1;stroke-dasharray:none;stroke-dashoffset:0;marker:none;visibility:visible;display:inline;overflow:visible;enable-background:accumulate"
       id="rect4402"
       width="296.07523"
       height="107.30243"
       x="210.80116"
       y="275.63348"
       ry="14.148231" />
    <path
       sodipodi:type="arc"
       style="color:#000000;fill:#000000;fill-opacity:1;fill-rule:nonzero;stroke:#000000;stroke-width:0.70833701;stroke-linecap:round;stroke-linejoin:round;stroke-miterlimit:4;stroke-opacity:1;stroke-dasharray:none;stroke-dashoffset:0;marker:none;visibility:visible;display:inline;overflow:visible;enable-background:accumulate"
       id="path4422"
       sodipodi:cx="485.84155"
       sodipodi:cy="662.8941"
       sodipodi:rx="4.9677052"
       sodipodi:ry="31.793314"
       d="m 490.80926,662.8941 c 0,17.55897 -2.22412,31.79332 -4.96771,31.79332 -2.74359,0 -4.9677,-14.23435 -4.9677,-31.79332 0,-17.55896 2.22411,-31.79331 4.9677,-31.79331 2.74359,0 4.96771,14.23435 4.96771,31.79331 z"
       transform="matrix(1.4920712,0,0,1.3357664,-149.28987,-385.77417)" />
    <path
       transform="matrix(1.4920712,0,0,1.3357664,-149.28987,-482.6553)"
       sodipodi:type="arc"
       style="color:#000000;fill:#000000;fill-opacity:1;fill-rule:nonzero;stroke:#000000;stroke-width:0.70833701;stroke-linecap:round;stroke-linejoin:round;stroke-miterlimit:4;stroke-opacity:1;stroke-dasharray:none;stroke-dashoffset:0;marker:none;visibility:visible;display:inline;overflow:visible;enable-background:accumulate"
       id="path4422-5"
       sodipodi:cx="485.84155"
       sodipodi:cy="662.8941"
       sodipodi:rx="4.9677052"
       sodipodi:ry="31.793314"
       d="m 490.80926,662.8941 c 0,17.55897 -2.22412,31.79332 -4.96771,31.79332 -2.74359,0 -4.9677,-14.23435 -4.9677,-31.79332 0,-17.55896 2.22411,-31.79331 4.9677,-31.79331 2.74359,0 4.96771,14.23435 4.96771,31.79331 z" />
    <path
       sodipodi:type="arc"
       style="color:#000000;fill:#000000;fill-opacity:1;fill-rule:nonzero;stroke:#000000;stroke-width:0.60243171;stroke-linecap:round;stroke-linejoin:round;stroke-miterlimit:4;stroke-opacity:1;stroke-dasharray:none;stroke-dashoffset:0;marker:none;visibility:visible;display:inline;overflow:visible;enable-background:accumulate"
       id="path4442"
       sodipodi:cx="469.94492"
       sodipodi:cy="616.19769"
       sodipodi:rx="9.9354105"
       sodipodi:ry="9.9354105"
       d="m 479.88033,616.19769 c 0,5.48718 -4.44824,9.93541 -9.93541,9.93541 -5.48718,0 -9.93541,-4.44823 -9.93541,-9.93541 0,0 0,0 0,0 l 9.93541,0 z"
       sodipodi:start="0"
       sodipodi:end="3.1415927"
       transform="matrix(0,-1.1007519,2.5031959,0,-980.88675,968.56748)" />
    <g
       id="g4531"
       transform="translate(43.877704,7.9483283)">
      <rect
         rx="5.6036782"
         ry="6.1373792"
         y="392.67688"
         x="145.59824"
         height="27.751547"
         width="69.378868"
         id="rect4467"
         style="color:#000000;fill:#000000;fill-opacity:1;fill-rule:nonzero;stroke:none;stroke-width:9.5;marker:none;visibility:visible;display:inline;overflow:visible;enable-background:accumulate" />
      <rect
         ry="2.4015763"
         rx="1.334209"
         y="399.61475"
         x="138.9272"
         height="13.875793"
         width="15.47683"
         id="rect4469"
         style="color:#000000;fill:#000000;fill-opacity:1;fill-rule:nonzero;stroke:none;stroke-width:9.5;marker:none;visibility:visible;display:inline;overflow:visible;enable-background:accumulate" />
    </g>
    <path
       sodipodi:type="arc"
       style="color:#000000;fill:#000000;fill-opacity:1;fill-rule:nonzero;stroke:none;stroke-width:9.5;marker:none;visibility:visible;display:inline;overflow:visible;enable-background:accumulate"
       id="path4473"
       sodipodi:cx="168.60951"
       sodipodi:cy="329.44894"
       sodipodi:rx="14.402061"
       sodipodi:ry="15.92636"
       d="m 183.01157,329.44894 c 0,8.79589 -6.44802,15.92636 -14.40206,15.92636 -7.95404,0 -14.40206,-7.13047 -14.40206,-15.92636 0,0 0,0 0,0 l 14.40206,0 z"
       sodipodi:start="0"
       sodipodi:end="3.1415927"
       transform="matrix(-0.00984052,-1.499954,1.3266544,-0.0133018,-235.30988,584.50331)" />
    <rect
       style="color:#000000;fill:#000000;fill-opacity:1;fill-rule:nonzero;stroke:none;stroke-width:9.5;marker:none;visibility:visible;display:inline;overflow:visible;enable-background:accumulate"
       id="rect4560"
       width="166.55296"
       height="10.974246"
       x="-50.576614"
       y="575.30493"
       rx="2.9171503"
       ry="2.717742"
       transform="matrix(0.90126777,-0.43326252,0.43326252,0.90126777,0,0)" />
    <g
       id="g4609"
       transform="translate(44,0)">
      <rect
         ry="1.0478928"
         rx="1.1973294"
         y="540.33075"
         x="89.186363"
         height="9.5082312"
         width="75.73288"
         id="rect4580"
         style="color:#000000;fill:#000000;fill-opacity:1;fill-rule:nonzero;stroke:none;stroke-width:9.5;marker:none;visibility:visible;display:inline;overflow:visible;enable-background:accumulate" />
      <rect
         transform="matrix(0.95673324,-0.29096651,0.29096651,0.95673324,0,0)"
         style="color:#000000;fill:#000000;fill-opacity:1;fill-rule:nonzero;stroke:none;stroke-width:9.5;marker:none;visibility:visible;display:inline;overflow:visible;enable-background:accumulate"
         id="rect4582"
         width="50.856323"
         height="8.0000353"
         x="-138.51291"
         y="507.80478"
         rx="0.80403346"
         ry="0.88167596" />
      <rect
         transform="matrix(0.86659741,-0.49900794,0.49900794,0.86659741,0,0)"
         ry="0.88167596"
         rx="0.80403346"
         y="517.02808"
         x="-242.39062"
         height="8.0000353"
         width="50.856323"
         id="rect4584"
         style="color:#000000;fill:#000000;fill-opacity:1;fill-rule:nonzero;stroke:none;stroke-width:9.5;marker:none;visibility:visible;display:inline;overflow:visible;enable-background:accumulate" />
      <rect
         transform="matrix(0.79260158,0.60973989,-0.60973989,0.79260158,0,0)"
         style="color:#000000;fill:#000000;fill-opacity:1;fill-rule:nonzero;stroke:none;stroke-width:9.5;marker:none;visibility:visible;display:inline;overflow:visible;enable-background:accumulate"
         id="rect4586"
         width="50.856323"
         height="8.0000353"
         x="361.18155"
         y="367.01926"
         rx="0.80403346"
         ry="0.88167596" />
      <rect
         style="color:#000000;fill:#000000;fill-opacity:1;fill-rule:nonzero;stroke:none;stroke-width:9.5;marker:none;visibility:visible;display:inline;overflow:visible;enable-background:accumulate"
         id="rect4588"
         width="50.856323"
         height="8.0000353"
         x="223.4209"
         y="500.58121"
         rx="0.80403346"
         ry="0.88167596"
         transform="matrix(0.91977005,0.39245771,-0.39245771,0.91977005,0,0)" />
    </g>
  </g>
  <g
     inkscape:label="Layer 1"
     inkscape:groupmode="layer"
     id="layer1"
     style="display:inline"
     transform="translate(-50.167635,-255.75998)">
    <path
       id="path4454"
       style="fill:none;stroke:#000000;stroke-width:9.5;stroke-linecap:butt;stroke-linejoin:round;stroke-miterlimit:4;stroke-opacity:1;stroke-dasharray:none"
       d="m 380.81356,392.65201 0,58.64281 23.55764,57.10364 142.82152,0 0,-115.74645 z m -164.8062,0 0,58.64281 24.42957,57.10364 306.75579,0 0,-115.74645 z m 0,0 -33.91903,0 c 0,0 -6.91401,0.77779 -59.91733,-28.79946 l 89.45324,-103.34257 119.56736,1.35729 216.00112,1.62333 0,129.16141 0,115.74645 -411.13817,0 c -3.31877,0 -7.92029,-1.18678 -8.05822,-4.50268 L 122.171,363.85255 m 93.83636,28.79946 115.18424,-130.78474 49.62196,130.78474 z"
       inkscape:connector-curvature="0"
       sodipodi:nodetypes="ccccccccccccccccccccssccccc" />
  </g>
</svg>
